<?xml version="1.0" encoding="UTF-8"?>
<svg version="1.1" xmlns="http://www.w3.org/2000/svg" width="1024" height="1024">
<path d="M0 0 C337.92 0 675.84 0 1024 0 C1024 337.92 1024 675.84 1024 1024 C686.08 1024 348.16 1024 0 1024 C0 686.08 0 348.16 0 0 Z " fill="#0C103D" transform="translate(0,0)"/>
<path d="M0 0 C0 189.42 0 378.84 0 574 C-337.92 574 -675.84 574 -1024 574 C-1024 432.1 -1024 290.2 -1024 144 C-980.54815299 127.99142479 -937.66524369 117.75122787 -891.1875 117.8125 C-889.90850327 117.81340637 -889.90850327 117.81340637 -888.60366821 117.81433105 C-808.95466272 117.9667071 -734.80858794 144.81974714 -662.79296875 176.48046875 C-661.4406012 177.07492798 -661.4406012 177.07492798 -660.06091309 177.68139648 C-655.56319079 179.65950875 -651.06733456 181.64169046 -646.57470703 183.63134766 C-636.78918895 187.9567119 -626.96666639 192.10855929 -617 196 C-615.90824463 196.43070801 -614.81648926 196.86141602 -613.69165039 197.30517578 C-603.89665712 201.1573914 -593.9625016 204.61039147 -584 208 C-583.05608398 208.32403809 -582.11216797 208.64807617 -581.13964844 208.98193359 C-555.64980403 217.67261912 -529.69431714 223.5037839 -503 227 C-502.30986816 227.1038501 -501.61973633 227.2077002 -500.90869141 227.31469727 C-493.468267 228.33110433 -485.9416028 228.18605267 -478.44677734 228.18530273 C-476.03334386 228.18747006 -473.62038309 228.2056202 -471.20703125 228.22460938 C-399.4672437 228.49061295 -335.69178728 191.66751428 -284.328125 144.1484375 C-282.31159748 142.28754801 -280.26624218 140.47801322 -278.1875 138.6875 C-274.37602683 135.37898411 -270.69021093 131.94219465 -267 128.5 C-262.71379632 124.50186882 -258.40852343 120.5462876 -253.96484375 116.72265625 C-251.5571951 114.61177543 -249.22270013 112.42733002 -246.875 110.25 C-242.25731068 106.03881978 -237.4775898 102.13287609 -232.53344727 98.31298828 C-229.38608246 95.87995207 -226.27492133 93.41816467 -223.21875 90.87109375 C-214.58025089 83.67996222 -205.65841718 77.1824668 -196.32421875 70.921875 C-192.9804697 68.67886321 -189.72117282 66.35462813 -186.5 63.9375 C-174.35105577 55.0005628 -161.20036201 47.26611855 -148 40 C-147.07864258 39.48107178 -147.07864258 39.48107178 -146.13867188 38.95166016 C-105.49864841 16.09933617 -59.927523 4.54895674 -13.76953125 0.33203125 C-13.06417236 0.26733643 -12.35881348 0.2026416 -11.63208008 0.13598633 C-7.75961997 -0.06408419 -3.87762498 0 0 0 Z " fill="#341F91" transform="translate(1024,450)"/>
<path d="M0 0 C337.92 0 675.84 0 1024 0 C1024 55.44 1024 110.88 1024 168 C1014.1 168.66 1004.2 169.32 994 170 C988.88335821 170.4952346 983.83504367 171.00413297 978.75 171.6875 C976.87211792 171.93632935 976.87211792 171.93632935 974.95629883 172.19018555 C917.61920525 180.19804079 864.1668302 198.97323168 814.3515625 228.46484375 C811.14224358 230.35740456 807.89357408 232.15970239 804.6171875 233.93359375 C799.17563398 236.88436169 793.82562375 239.97051364 788.5 243.125 C787.5500415 243.68703125 786.60008301 244.2490625 785.62133789 244.828125 C777.91691734 249.40930532 770.32892593 254.15718783 762.76953125 258.97265625 C756.86724902 262.73021028 750.91590799 266.40752367 744.9609375 270.08081055 C740.62668868 272.754417 736.29842899 275.43611163 731.98828125 278.1484375 C717.56837352 287.19924556 702.84078568 295.66535288 688 304 C686.97600098 304.57733887 685.95200195 305.15467773 684.89697266 305.74951172 C673.46444558 312.17686667 661.97823636 318.12183337 649.88378906 323.20654297 C648.24729164 323.89584009 646.61894819 324.60443436 644.9921875 325.31640625 C642.01465852 326.60157901 639.01761777 327.81166143 636 329 C635.2589502 329.29374512 634.51790039 329.58749023 633.75439453 329.89013672 C583.29647437 349.68509114 531.10120943 350.53167641 479 337 C478.12956055 336.77473633 477.25912109 336.54947266 476.36230469 336.31738281 C438.18622045 326.19459234 401.30720251 307.66583848 366.71191406 288.97338867 C363.13044247 287.05534588 359.50625645 285.2277579 355.8671875 283.421875 C354.45136538 282.71673637 353.03568234 282.01131843 351.62011719 281.30566406 C350.87209839 280.93284302 350.12407959 280.56002197 349.35339355 280.17590332 C346.06391597 278.53227359 342.77999392 276.87769912 339.49615479 275.22283936 C335.94467421 273.43362041 332.3910779 271.64862408 328.83740234 269.86376953 C327.03199173 268.95602662 325.22730079 268.04685091 323.42333984 267.13623047 C312.03940703 261.39162757 300.59698187 255.89296894 288.89590454 250.82270813 C287.02780383 250.01206518 285.1638964 249.19245319 283.30102539 248.36987305 C255.53213786 236.15225931 226.68294197 227.19920018 197 221 C196.08847168 220.80567383 195.17694336 220.61134766 194.23779297 220.41113281 C142.3983263 209.45630545 91.80481744 212.37369245 40.08374023 222.1328125 C32.11355305 223.6311123 24.13097143 225.01888969 16.125 226.3125 C15.07884521 226.48394531 14.03269043 226.65539062 12.95483398 226.83203125 C11.49605835 227.0640625 11.49605835 227.0640625 10.0078125 227.30078125 C9.15848145 227.43653564 8.30915039 227.57229004 7.43408203 227.7121582 C5 228 5 228 0 228 C0 152.76 0 77.52 0 0 Z " fill="#070C28" transform="translate(0,0)"/>
<path d="M0 0 C0 49.83 0 99.66 0 151 C-12.21 152.32 -24.42 153.64 -37 155 C-44.73865807 156.17847585 -52.35830196 157.38081797 -60 159 C-60.9182959 159.19255371 -61.8365918 159.38510742 -62.78271484 159.58349609 C-118.10663172 171.51907508 -169.00279009 199.97191828 -213 235 C-213.83273437 235.66257812 -214.66546875 236.32515625 -215.5234375 237.0078125 C-217.13170303 238.29338398 -218.73718322 239.58244777 -220.33984375 240.875 C-222.341983 242.4743594 -224.35342055 244.05571496 -226.37890625 245.625 C-233.51579031 251.16168584 -240.34510074 256.88405384 -247 263 C-248.28782181 264.12939929 -249.57935422 265.254585 -250.875 266.375 C-254.84408375 269.82987047 -258.71177427 273.39257235 -262.58203125 276.95703125 C-265.31418615 279.46896208 -268.06482087 281.95076821 -270.875 284.375 C-273.98395134 287.06382278 -276.98882763 289.84954285 -279.9855957 292.66162109 C-286.45128749 298.72552928 -293.07420609 304.46143536 -300 310 C-301.21623047 311.01900391 -301.21623047 311.01900391 -302.45703125 312.05859375 C-317.07305597 324.29474348 -332.62631262 335.25106124 -349 345 C-349.78955078 345.47034668 -350.57910156 345.94069336 -351.39257812 346.42529297 C-364.72795604 354.27106669 -378.56504732 360.4619702 -393 366 C-393.86141602 366.33515625 -394.72283203 366.6703125 -395.61035156 367.015625 C-406.84854313 371.31530158 -418.2735593 374.08713631 -430.0625 376.375 C-430.71767609 376.50273804 -431.37285217 376.63047607 -432.04788208 376.76208496 C-446.34281727 379.51170693 -460.30430069 380.23916106 -474.8125 380.25 C-476.03895737 380.25101212 -476.03895737 380.25101212 -477.29019165 380.25204468 C-490.74923717 380.23447948 -503.73455007 379.38964608 -517 377 C-518.0096582 376.82839355 -519.01931641 376.65678711 -520.05957031 376.47998047 C-550.46075001 371.28625221 -580.34300049 362.74244963 -608.82568359 350.88134766 C-611.40774821 349.83472142 -614.00864113 348.84458888 -616.61328125 347.85546875 C-631.47361385 342.18094879 -646.03378124 335.97372634 -660.5625 329.5 C-676.5957443 322.36119231 -692.64341393 315.37466478 -709 309 C-710.20994629 308.52546387 -711.41989258 308.05092773 -712.66650391 307.56201172 C-741.13845278 296.4290488 -770.15406865 286.73318374 -800 280 C-800.94214355 279.78150391 -801.88428711 279.56300781 -802.85498047 279.33789062 C-814.97143617 276.54666523 -827.11640901 274.42251141 -839.4375 272.75 C-840.63262207 272.58677246 -841.82774414 272.42354492 -843.05908203 272.25537109 C-858.69724453 270.2424534 -874.31168315 269.79160442 -890.0625 269.8125 C-891.33784103 269.81340637 -891.33784103 269.81340637 -892.63894653 269.81433105 C-931.42225752 269.88877555 -968.19592915 276.60112351 -1004.83374023 289.21704102 C-1005.8562941 289.5683886 -1005.8562941 289.5683886 -1006.89950562 289.92683411 C-1008.75423592 290.56638593 -1010.60681419 291.21216921 -1012.45922852 291.85839844 C-1016.25378762 293.0818252 -1020.1321291 294.03303228 -1024 295 C-1024 224.71 -1024 154.42 -1024 82 C-1007.70959751 77.34559929 -1007.70959751 77.34559929 -1001.39453125 76.296875 C-1000.64293732 76.16904129 -999.89134338 76.04120758 -999.11697388 75.90950012 C-996.68442918 75.50665546 -994.24955923 75.12452571 -991.8125 74.75 C-990.96470978 74.61826385 -990.11691956 74.48652771 -989.24343872 74.35079956 C-932.26358642 65.72947027 -871.23050404 74.78854562 -817.97705078 96.20947266 C-815.80282953 97.07883897 -813.61893542 97.92071395 -811.43359375 98.76171875 C-793.65471496 105.66255499 -776.18917648 113.30694159 -759.69140625 122.90234375 C-756.01955095 125.02448434 -752.25051859 126.89706998 -748.4375 128.75 C-737.6922549 134.01101315 -727.38017423 140.06139192 -717 146 C-667.08731812 174.52769426 -615.3743907 202.67858229 -559 216 C-558.07606445 216.22236328 -557.15212891 216.44472656 -556.20019531 216.67382812 C-549.4948246 218.27002014 -542.76631786 219.68784581 -536 221 C-535.17790039 221.16661133 -534.35580078 221.33322266 -533.50878906 221.50488281 C-507.31595521 226.63719062 -477.12859225 226.2674916 -451 221 C-450.07171387 220.82307617 -449.14342773 220.64615234 -448.18701172 220.46386719 C-434.80466725 217.8909376 -421.8908303 214.39592313 -409 210 C-407.85144531 209.62359375 -406.70289063 209.2471875 -405.51953125 208.859375 C-388.47051998 203.0745253 -371.90281183 195.41604981 -356 187 C-355.22591797 186.59168945 -354.45183594 186.18337891 -353.65429688 185.76269531 C-341.70000709 179.41873901 -330.1978409 172.59745155 -319 165 C-318.13004395 164.41089844 -317.26008789 163.82179688 -316.36376953 163.21484375 C-303.00393821 154.1295055 -290.01594915 144.63114147 -277.24462891 134.73779297 C-275.26550163 133.20555152 -273.28128581 131.68043966 -271.29296875 130.16015625 C-265.93556771 126.06215899 -260.61322155 121.92089991 -255.3125 117.75 C-253.52104682 116.34140681 -251.72956044 114.93285593 -249.93798828 113.52441406 C-248.59725193 112.46979605 -247.2571221 111.41440668 -245.91748047 110.35839844 C-235.53525586 102.18242574 -224.99865271 94.28377305 -214.24121094 86.60888672 C-212.00676688 85.0048577 -209.78674405 83.38271434 -207.5703125 81.75390625 C-196.64417143 73.74084174 -185.4459516 66.24910268 -174 59 C-172.91912109 58.30874023 -172.91912109 58.30874023 -171.81640625 57.60351562 C-120.71756436 25.01254105 -61.47115272 0 0 0 Z " fill="#18196C" transform="translate(1024,299)"/>
</svg>
